<svg id="Layer_1" data-name="Layer 1" xmlns="http://www.w3.org/2000/svg" viewBox="0 0 1001.96 159.51"><defs><style>.cls-1{fill:#ff464a;}.cls-2{fill:#303ec0;}.cls-3{fill:#ffc928;}.cls-4{fill:#303dbf;}</style></defs><title>Master Colour with Icon</title><path class="cls-1" d="M53.09,26.67C53.09,12,0,12,0,26.67V132.85a26.54,26.54,0,0,0,53.09,0Z"/><path class="cls-2" d="M48.33,11.46A26.54,26.54,0,1,0,4.76,41.79L78.53,148.1a26.54,26.54,0,1,0,43.57-30.33Z"/><path class="cls-3" d="M112.87,11.46A26.54,26.54,0,0,0,69.29,41.79L143.06,148.1a26.54,26.54,0,0,0,43.57-30.33Z"/><path class="cls-1" d="M814,26.67a26.54,26.54,0,1,0-53.09,0V80.58a26.54,26.54,0,1,0,53.09,0Z"/><path class="cls-2" d="M787.42,159.39a26.61,26.61,0,0,1-26.58-26.58V80.58a26.58,26.58,0,1,1,53.16,0v52.23A26.61,26.61,0,0,1,787.42,159.39Z"/><path class="cls-3" d="M298.86,79.7h0a26.54,26.54,0,0,1-26.53,26.56l-34.57.08A26.54,26.54,0,0,1,211.2,79.81h0a26.54,26.54,0,0,1,26.53-26.56l34.57-.08A26.54,26.54,0,0,1,298.86,79.7Z"/><path class="cls-2" d="M232.79.08,288.61,0a26.54,26.54,0,0,1,26.56,26.53h0a26.54,26.54,0,0,1-26.53,26.56l-55.81.08"/><path class="cls-2" d="M232.79,106.42l55.81-.08a26.54,26.54,0,0,1,26.56,26.53h0a26.54,26.54,0,0,1-26.53,26.56l-55.81.08"/><path class="cls-1" d="M259.35,26.67a26.54,26.54,0,1,0-53.09,0V132.85a26.54,26.54,0,0,0,53.09,0Z"/><path class="cls-3" d="M386.3,11.46c-8.37-12-51.95,18.3-43.57,30.33L416.5,148.1a26.54,26.54,0,0,0,43.57-30.33Z"/><path class="cls-2" d="M364.52.23,411.77.12a35.09,35.09,0,0,1,35.11,35.07h0A35.09,35.09,0,0,1,411.81,70.3l-47.25.11"/><path class="cls-1" d="M390.06,26.67a26.54,26.54,0,1,0-53.09,0V132.85a26.54,26.54,0,0,0,53.09,0Z"/><path class="cls-2" d="M733.26,26.67a26.54,26.54,0,1,0-53.09,0V132.85a26.54,26.54,0,1,0,53.09,0Z"/><path class="cls-3" d="M703,79.7h0a26.54,26.54,0,0,1-26.53,26.56l-34.57.08a26.54,26.54,0,0,1-26.56-26.53h0A26.54,26.54,0,0,1,641.9,53.25l34.57-.08A26.54,26.54,0,0,1,703,79.7Z"/><path class="cls-1" d="M650.57,26.67a26.54,26.54,0,1,0-53.09,0V132.85a26.54,26.54,0,0,0,53.09,0Z"/><path class="cls-3" d="M497.22,106.27A26.52,26.52,0,0,1,470.7,79.76,79.7,79.7,0,0,1,550.31.14a26.52,26.52,0,1,1,0,53,26.61,26.61,0,0,0-26.58,26.58A26.52,26.52,0,0,1,497.22,106.27Z"/><path class="cls-2" d="M550.31,159.37A79.71,79.71,0,0,1,470.7,79.76a26.52,26.52,0,1,1,53,0,26.61,26.61,0,0,0,26.58,26.58,26.52,26.52,0,1,1,0,53Z"/><path class="cls-4" d="M1001.29,76a51.08,51.08,0,0,0-5.6-12.81c-1.16-2-2.42-3.88-3.72-5.76-.44-.64-.89-1.27-1.34-1.91C991,41,987.39-4.94,928.55.58c-41.35,3.88-56.32,41.16-60.82,56.85l-.15.32v0c-.3.25-17.46,14.64-20.09,30h0c-.62,3.24-.48,7.45,2.24,9.76a5.26,5.26,0,0,0,2.75,1.23h0s4.83,1.18,11.57-5a4.71,4.71,0,0,0,.28,1.64c8.08,22.2,22,29.55,28.08,33.65s10.18,17.89,10.18,17.89c1.16,3.61,2.39,7.4,5.26,10.05a9,9,0,0,0,9.65,1.7c6.08-2.44,8.19-8.54,9.33-14.56h0v0c.23-1.22.43-2.44.61-3.62a63.43,63.43,0,0,1,3.25-12l0-.06s15.31-4.41,18.5-1.07a10.6,10.6,0,0,1,2.11,4.13c1.11,3.55,1.36,7.37,3.17,10.69,1.66,3,4.57,5.05,8.13,4.49,3.79-.6,6.57-3.47,8.2-6.79a40.51,40.51,0,0,0,3.28-12c.63-4.33.31-8.75,1-13.06a4.51,4.51,0,0,1,1.08-2.73q1.19-1.22,2.26-2.54a40.49,40.49,0,0,0,3.51-5.06,51.13,51.13,0,0,0,4.91-11.65c.59-2,1.08-4.11,1.48-6.19,3.74,1.95,8.69,3.39,11.87-.43C1002.53,83.44,1002.15,79.24,1001.29,76Z"/><path d="M906.85,49c3.1,7.11,10.24,10.46,17.74,10.52,8.9.07,14.48-4,18.28-11.9,1.52-3.18-3.22-6-4.76-2.78-2.9,6-6.7,9.33-13.53,9.17-5.72-.13-10.6-2.35-13-7.79-1.41-3.24-6.16-.44-4.75,2.78"/><path d="M940,81.1c7,4.66,16.39,4.29,21.14-3.14,1.91-3-2.85-5.76-4.76-2.78-3.14,4.91-9.27,4.06-13.6,1.17-3-2-5.72,2.8-2.78,4.75"/><path d="M952.36,46.09c2.81,4.89,8,8.84,14,8a10.83,10.83,0,0,0,9.3-10.71c0-2.95-4.63-3-4.58,0a6.23,6.23,0,0,1-6.84,6.19c-3.55-.24-6.19-2.82-7.87-5.75-1.47-2.56-5.43-.25-4,2.31"/></svg>